<svg width="15" height="15" viewBox="0 0 15 15" fill="none" xmlns="http://www.w3.org/2000/svg">
<g clip-path="url(#clip0_204_329)">
<path d="M2.09077 7.44035C2.05112 7.3212 2.05112 7.19241 2.09077 7.07326C2.88757 4.67596 5.1493 2.94678 7.81488 2.94678C10.4793 2.94678 12.7399 4.67424 13.5384 7.07039C13.5786 7.18931 13.5786 7.31799 13.5384 7.43748C12.7422 9.83478 10.4805 11.564 7.81488 11.564C5.15045 11.564 2.8893 9.83651 2.09077 7.44035Z" stroke="#9CA3AF" stroke-width="1.29258" stroke-linecap="round" stroke-linejoin="round"/>
<path d="M9.53916 7.25566C9.53916 7.71275 9.35758 8.15111 9.03438 8.47432C8.71117 8.79753 8.27281 8.9791 7.81572 8.9791C7.35864 8.9791 6.92028 8.79753 6.59707 8.47432C6.27386 8.15111 6.09229 7.71275 6.09229 7.25566C6.09229 6.79858 6.27386 6.36022 6.59707 6.03701C6.92028 5.7138 7.35864 5.53223 7.81572 5.53223C8.27281 5.53223 8.71117 5.7138 9.03438 6.03701C9.35758 6.36022 9.53916 6.79858 9.53916 7.25566Z" stroke="#9CA3AF" stroke-width="1.29258" stroke-linecap="round" stroke-linejoin="round"/>
</g>
<defs>
<clipPath id="clip0_204_329">
<rect width="13.7875" height="13.7875" fill="white" transform="translate(0.921875 0.361816)"/>
</clipPath>
</defs>
</svg>
