<svg width="18" height="18" viewBox="0 0 18 18" fill="none" xmlns="http://www.w3.org/2000/svg">
<path fill-rule="evenodd" clip-rule="evenodd" d="M6.50004 2.75C6.63584 2.75003 6.76794 2.79429 6.87635 2.87608C6.98475 2.95788 7.06357 3.07275 7.10087 3.20333L7.77837 5.575C7.92425 6.08577 8.19791 6.55092 8.57352 6.92652C8.94912 7.30213 9.41427 7.57579 9.92504 7.72167L12.2967 8.39917C12.4272 8.43655 12.542 8.5154 12.6237 8.6238C12.7054 8.7322 12.7496 8.86426 12.7496 9C12.7496 9.13575 12.7054 9.2678 12.6237 9.3762C12.542 9.4846 12.4272 9.56345 12.2967 9.60083L9.92504 10.2783C9.41427 10.4242 8.94912 10.6979 8.57352 11.0735C8.19791 11.4491 7.92425 11.9142 7.77837 12.425L7.10087 14.7967C7.06349 14.9272 6.98464 15.0419 6.87624 15.1236C6.76784 15.2054 6.63578 15.2496 6.50004 15.2496C6.36429 15.2496 6.23224 15.2054 6.12384 15.1236C6.01544 15.0419 5.93659 14.9272 5.8992 14.7967L5.2217 12.425C5.07583 11.9142 4.80217 11.4491 4.42656 11.0735C4.05095 10.6979 3.5858 10.4242 3.07504 10.2783L0.703371 9.60083C0.572875 9.56345 0.458097 9.4846 0.37639 9.3762C0.294683 9.2678 0.250488 9.13575 0.250488 9C0.250488 8.86426 0.294683 8.7322 0.37639 8.6238C0.458097 8.5154 0.572875 8.43655 0.703371 8.39917L3.07504 7.72167C3.5858 7.57579 4.05095 7.30213 4.42656 6.92652C4.80217 6.55092 5.07583 6.08577 5.2217 5.575L5.8992 3.20333C5.93651 3.07275 6.01532 2.95788 6.12373 2.87608C6.23214 2.79429 6.36423 2.75003 6.50004 2.75ZM14 0.25C14.1395 0.249922 14.2749 0.29647 14.3848 0.382239C14.4948 0.468007 14.5729 0.588071 14.6067 0.723334L14.8217 1.58667C15.0184 2.37 15.63 2.98167 16.4134 3.17833L17.2767 3.39333C17.4122 3.4269 17.5326 3.50488 17.6186 3.61483C17.7047 3.72479 17.7514 3.86038 17.7514 4C17.7514 4.13962 17.7047 4.27521 17.6186 4.38517C17.5326 4.49512 17.4122 4.5731 17.2767 4.60667L16.4134 4.82167C15.63 5.01833 15.0184 5.63 14.8217 6.41333L14.6067 7.27667C14.5731 7.41219 14.4952 7.53257 14.3852 7.61861C14.2753 7.70465 14.1397 7.7514 14 7.7514C13.8604 7.7514 13.7248 7.70465 13.6149 7.61861C13.5049 7.53257 13.4269 7.41219 13.3934 7.27667L13.1784 6.41333C13.0822 6.02869 12.8833 5.67742 12.603 5.39706C12.3226 5.11671 11.9713 4.91782 11.5867 4.82167L10.7234 4.60667C10.5878 4.5731 10.4675 4.49512 10.3814 4.38517C10.2954 4.27521 10.2486 4.13962 10.2486 4C10.2486 3.86038 10.2954 3.72479 10.3814 3.61483C10.4675 3.50488 10.5878 3.4269 10.7234 3.39333L11.5867 3.17833C11.9713 3.08218 12.3226 2.88329 12.603 2.60294C12.8833 2.32258 13.0822 1.97131 13.1784 1.58667L13.3934 0.723334C13.4272 0.588071 13.5053 0.468007 13.6152 0.382239C13.7252 0.29647 13.8606 0.249922 14 0.25ZM12.75 11.5C12.8813 11.4999 13.0093 11.5412 13.1158 11.6179C13.2223 11.6946 13.3019 11.803 13.3434 11.9275L13.6717 12.9133C13.7967 13.2858 14.0884 13.5792 14.4617 13.7033L15.4475 14.0325C15.5717 14.0742 15.6796 14.1538 15.756 14.2601C15.8325 14.3664 15.8736 14.4941 15.8736 14.625C15.8736 14.7559 15.8325 14.8836 15.756 14.9899C15.6796 15.0962 15.5717 15.1758 15.4475 15.2175L14.4617 15.5467C14.0892 15.6717 13.7959 15.9633 13.6717 16.3367L13.3425 17.3225C13.3009 17.4466 13.2212 17.5546 13.1149 17.631C13.0086 17.7075 12.881 17.7486 12.75 17.7486C12.6191 17.7486 12.4915 17.7075 12.3851 17.631C12.2788 17.5546 12.1992 17.4466 12.1575 17.3225L11.8284 16.3367C11.767 16.1527 11.6637 15.9856 11.5265 15.8485C11.3894 15.7114 11.2223 15.6081 11.0384 15.5467L10.0525 15.2175C9.9284 15.1758 9.82049 15.0962 9.74404 14.9899C9.66759 14.8836 9.62646 14.7559 9.62646 14.625C9.62646 14.4941 9.66759 14.3664 9.74404 14.2601C9.82049 14.1538 9.9284 14.0742 10.0525 14.0325L11.0384 13.7033C11.4109 13.5783 11.7042 13.2867 11.8284 12.9133L12.1575 11.9275C12.199 11.8031 12.2785 11.6949 12.3848 11.6182C12.4911 11.5414 12.6189 11.5001 12.75 11.5Z" fill="#F8A151"/>
</svg>
