<svg width="120" height="50" viewBox="0 0 120 50" fill="none" xmlns="http://www.w3.org/2000/svg">
<rect x="11" width="109" height="50" rx="4" fill="#8C2822"/>
<path d="M26.7082 13.41C26.9616 13.45 27.1916 13.5533 27.3982 13.72C27.6116 13.8867 27.7782 14.0933 27.8982 14.34C28.0249 14.5867 28.0882 14.85 28.0882 15.13C28.0882 15.4833 27.9982 15.8033 27.8182 16.09C27.6382 16.37 27.3749 16.5933 27.0282 16.76C26.6882 16.92 26.2849 17 25.8182 17H23.2182V10.03H25.7182C26.1916 10.03 26.5949 10.11 26.9282 10.27C27.2616 10.4233 27.5116 10.6333 27.6782 10.9C27.8449 11.1667 27.9282 11.4667 27.9282 11.8C27.9282 12.2133 27.8149 12.5567 27.5882 12.83C27.3682 13.0967 27.0749 13.29 26.7082 13.41ZM24.1282 13.04H25.6582C26.0849 13.04 26.4149 12.94 26.6482 12.74C26.8816 12.54 26.9982 12.2633 26.9982 11.91C26.9982 11.5567 26.8816 11.28 26.6482 11.08C26.4149 10.88 26.0782 10.78 25.6382 10.78H24.1282V13.04ZM25.7382 16.25C26.1916 16.25 26.5449 16.1433 26.7982 15.93C27.0516 15.7167 27.1782 15.42 27.1782 15.04C27.1782 14.6533 27.0449 14.35 26.7782 14.13C26.5116 13.9033 26.1549 13.79 25.7082 13.79H24.1282V16.25H25.7382ZM31.7411 17.09C31.2277 17.09 30.7611 16.9733 30.3411 16.74C29.9277 16.5067 29.6011 16.1767 29.3611 15.75C29.1277 15.3167 29.0111 14.8167 29.0111 14.25C29.0111 13.69 29.1311 13.1967 29.3711 12.77C29.6177 12.3367 29.9511 12.0067 30.3711 11.78C30.7911 11.5467 31.2611 11.43 31.7811 11.43C32.3011 11.43 32.7711 11.5467 33.1911 11.78C33.6111 12.0067 33.9411 12.3333 34.1811 12.76C34.4277 13.1867 34.5511 13.6833 34.5511 14.25C34.5511 14.8167 34.4244 15.3167 34.1711 15.75C33.9244 16.1767 33.5877 16.5067 33.1611 16.74C32.7344 16.9733 32.2611 17.09 31.7411 17.09ZM31.7411 16.29C32.0677 16.29 32.3744 16.2133 32.6611 16.06C32.9477 15.9067 33.1777 15.6767 33.3511 15.37C33.5311 15.0633 33.6211 14.69 33.6211 14.25C33.6211 13.81 33.5344 13.4367 33.3611 13.13C33.1877 12.8233 32.9611 12.5967 32.6811 12.45C32.4011 12.2967 32.0977 12.22 31.7711 12.22C31.4377 12.22 31.1311 12.2967 30.8511 12.45C30.5777 12.5967 30.3577 12.8233 30.1911 13.13C30.0244 13.4367 29.9411 13.81 29.9411 14.25C29.9411 14.6967 30.0211 15.0733 30.1811 15.38C30.3477 15.6867 30.5677 15.9167 30.8411 16.07C31.1144 16.2167 31.4144 16.29 31.7411 16.29ZM38.1375 17.09C37.6242 17.09 37.1575 16.9733 36.7375 16.74C36.3242 16.5067 35.9975 16.1767 35.7575 15.75C35.5242 15.3167 35.4075 14.8167 35.4075 14.25C35.4075 13.69 35.5275 13.1967 35.7675 12.77C36.0142 12.3367 36.3475 12.0067 36.7675 11.78C37.1875 11.5467 37.6575 11.43 38.1775 11.43C38.6975 11.43 39.1675 11.5467 39.5875 11.78C40.0075 12.0067 40.3375 12.3333 40.5775 12.76C40.8242 13.1867 40.9475 13.6833 40.9475 14.25C40.9475 14.8167 40.8209 15.3167 40.5675 15.75C40.3209 16.1767 39.9842 16.5067 39.5575 16.74C39.1309 16.9733 38.6575 17.09 38.1375 17.09ZM38.1375 16.29C38.4642 16.29 38.7709 16.2133 39.0575 16.06C39.3442 15.9067 39.5742 15.6767 39.7475 15.37C39.9275 15.0633 40.0175 14.69 40.0175 14.25C40.0175 13.81 39.9309 13.4367 39.7575 13.13C39.5842 12.8233 39.3575 12.5967 39.0775 12.45C38.7975 12.2967 38.4942 12.22 38.1675 12.22C37.8342 12.22 37.5275 12.2967 37.2475 12.45C36.9742 12.5967 36.7542 12.8233 36.5875 13.13C36.4209 13.4367 36.3375 13.81 36.3375 14.25C36.3375 14.6967 36.4175 15.0733 36.5775 15.38C36.7442 15.6867 36.9642 15.9167 37.2375 16.07C37.5109 16.2167 37.8109 16.29 38.1375 16.29ZM45.204 17L43.054 14.58V17H42.144V9.6H43.054V13.95L45.164 11.52H46.434L43.854 14.25L46.444 17H45.204ZM47.7605 10.63C47.5872 10.63 47.4405 10.57 47.3205 10.45C47.2005 10.33 47.1405 10.1833 47.1405 10.01C47.1405 9.83667 47.2005 9.69 47.3205 9.57C47.4405 9.45 47.5872 9.39 47.7605 9.39C47.9272 9.39 48.0672 9.45 48.1805 9.57C48.3005 9.69 48.3605 9.83667 48.3605 10.01C48.3605 10.1833 48.3005 10.33 48.1805 10.45C48.0672 10.57 47.9272 10.63 47.7605 10.63ZM48.2005 11.52V17H47.2905V11.52H48.2005ZM52.4214 11.42C53.0881 11.42 53.6281 11.6233 54.0414 12.03C54.4548 12.43 54.6614 13.01 54.6614 13.77V17H53.7614V13.9C53.7614 13.3533 53.6248 12.9367 53.3514 12.65C53.0781 12.3567 52.7048 12.21 52.2314 12.21C51.7514 12.21 51.3681 12.36 51.0814 12.66C50.8014 12.96 50.6614 13.3967 50.6614 13.97V17H49.7514V11.52H50.6614V12.3C50.8414 12.02 51.0848 11.8033 51.3914 11.65C51.7048 11.4967 52.0481 11.42 52.4214 11.42ZM58.4079 11.43C58.8813 11.43 59.2946 11.5333 59.6479 11.74C60.0079 11.9467 60.2746 12.2067 60.4479 12.52V11.52H61.3679V17.12C61.3679 17.62 61.2613 18.0633 61.0479 18.45C60.8346 18.8433 60.5279 19.15 60.1279 19.37C59.7346 19.59 59.2746 19.7 58.7479 19.7C58.0279 19.7 57.4279 19.53 56.9479 19.19C56.4679 18.85 56.1846 18.3867 56.0979 17.8H56.9979C57.0979 18.1333 57.3046 18.4 57.6179 18.6C57.9313 18.8067 58.3079 18.91 58.7479 18.91C59.2479 18.91 59.6546 18.7533 59.9679 18.44C60.2879 18.1267 60.4479 17.6867 60.4479 17.12V15.97C60.2679 16.29 60.0013 16.5567 59.6479 16.77C59.2946 16.9833 58.8813 17.09 58.4079 17.09C57.9213 17.09 57.4779 16.97 57.0779 16.73C56.6846 16.49 56.3746 16.1533 56.1479 15.72C55.9213 15.2867 55.8079 14.7933 55.8079 14.24C55.8079 13.68 55.9213 13.19 56.1479 12.77C56.3746 12.3433 56.6846 12.0133 57.0779 11.78C57.4779 11.5467 57.9213 11.43 58.4079 11.43ZM60.4479 14.25C60.4479 13.8367 60.3646 13.4767 60.1979 13.17C60.0313 12.8633 59.8046 12.63 59.5179 12.47C59.2379 12.3033 58.9279 12.22 58.5879 12.22C58.2479 12.22 57.9379 12.3 57.6579 12.46C57.3779 12.62 57.1546 12.8533 56.9879 13.16C56.8213 13.4667 56.7379 13.8267 56.7379 14.24C56.7379 14.66 56.8213 15.0267 56.9879 15.34C57.1546 15.6467 57.3779 15.8833 57.6579 16.05C57.9379 16.21 58.2479 16.29 58.5879 16.29C58.9279 16.29 59.2379 16.21 59.5179 16.05C59.8046 15.8833 60.0313 15.6467 60.1979 15.34C60.3646 15.0267 60.4479 14.6633 60.4479 14.25ZM67.8018 12.27H66.6518V17H65.7418V12.27H65.0318V11.52H65.7418V11.13C65.7418 10.5167 65.8984 10.07 66.2118 9.79C66.5318 9.50333 67.0418 9.36 67.7418 9.36V10.12C67.3418 10.12 67.0584 10.2 66.8918 10.36C66.7318 10.5133 66.6518 10.77 66.6518 11.13V11.52H67.8018V12.27ZM71.2528 17.09C70.7394 17.09 70.2728 16.9733 69.8528 16.74C69.4394 16.5067 69.1128 16.1767 68.8728 15.75C68.6394 15.3167 68.5228 14.8167 68.5228 14.25C68.5228 13.69 68.6428 13.1967 68.8828 12.77C69.1294 12.3367 69.4628 12.0067 69.8828 11.78C70.3028 11.5467 70.7728 11.43 71.2928 11.43C71.8128 11.43 72.2828 11.5467 72.7028 11.78C73.1228 12.0067 73.4528 12.3333 73.6928 12.76C73.9394 13.1867 74.0628 13.6833 74.0628 14.25C74.0628 14.8167 73.9361 15.3167 73.6828 15.75C73.4361 16.1767 73.0994 16.5067 72.6728 16.74C72.2461 16.9733 71.7728 17.09 71.2528 17.09ZM71.2528 16.29C71.5794 16.29 71.8861 16.2133 72.1728 16.06C72.4594 15.9067 72.6894 15.6767 72.8628 15.37C73.0428 15.0633 73.1328 14.69 73.1328 14.25C73.1328 13.81 73.0461 13.4367 72.8728 13.13C72.6994 12.8233 72.4728 12.5967 72.1928 12.45C71.9128 12.2967 71.6094 12.22 71.2828 12.22C70.9494 12.22 70.6428 12.2967 70.3628 12.45C70.0894 12.5967 69.8694 12.8233 69.7028 13.13C69.5361 13.4367 69.4528 13.81 69.4528 14.25C69.4528 14.6967 69.5328 15.0733 69.6928 15.38C69.8594 15.6867 70.0794 15.9167 70.3528 16.07C70.6261 16.2167 70.9261 16.29 71.2528 16.29ZM76.1693 12.41C76.3293 12.0967 76.5559 11.8533 76.8493 11.68C77.1493 11.5067 77.5126 11.42 77.9393 11.42V12.36H77.6993C76.6793 12.36 76.1693 12.9133 76.1693 14.02V17H75.2593V11.52H76.1693V12.41ZM82.7657 12.27V15.5C82.7657 15.7667 82.8224 15.9567 82.9357 16.07C83.0491 16.1767 83.2457 16.23 83.5257 16.23H84.1957V17H83.3757C82.8691 17 82.4891 16.8833 82.2357 16.65C81.9824 16.4167 81.8557 16.0333 81.8557 15.5V12.27H81.1457V11.52H81.8557V10.14H82.7657V11.52H84.1957V12.27H82.7657ZM88.0183 11.42C88.4317 11.42 88.805 11.51 89.1383 11.69C89.4717 11.8633 89.7317 12.1267 89.9183 12.48C90.1117 12.8333 90.2083 13.2633 90.2083 13.77V17H89.3083V13.9C89.3083 13.3533 89.1717 12.9367 88.8983 12.65C88.625 12.3567 88.2517 12.21 87.7783 12.21C87.2983 12.21 86.915 12.36 86.6283 12.66C86.3483 12.96 86.2083 13.3967 86.2083 13.97V17H85.2983V9.6H86.2083V12.3C86.3883 12.02 86.635 11.8033 86.9483 11.65C87.2683 11.4967 87.625 11.42 88.0183 11.42ZM96.6948 14.05C96.6948 14.2233 96.6848 14.4067 96.6648 14.6H92.2848C92.3181 15.14 92.5015 15.5633 92.8348 15.87C93.1748 16.17 93.5848 16.32 94.0648 16.32C94.4581 16.32 94.7848 16.23 95.0448 16.05C95.3115 15.8633 95.4981 15.6167 95.6048 15.31H96.5848C96.4381 15.8367 96.1448 16.2667 95.7048 16.6C95.2648 16.9267 94.7181 17.09 94.0648 17.09C93.5448 17.09 93.0781 16.9733 92.6648 16.74C92.2581 16.5067 91.9381 16.1767 91.7048 15.75C91.4715 15.3167 91.3548 14.8167 91.3548 14.25C91.3548 13.6833 91.4681 13.1867 91.6948 12.76C91.9215 12.3333 92.2381 12.0067 92.6448 11.78C93.0581 11.5467 93.5315 11.43 94.0648 11.43C94.5848 11.43 95.0448 11.5433 95.4448 11.77C95.8448 11.9967 96.1515 12.31 96.3648 12.71C96.5848 13.1033 96.6948 13.55 96.6948 14.05ZM95.7548 13.86C95.7548 13.5133 95.6781 13.2167 95.5248 12.97C95.3715 12.7167 95.1615 12.5267 94.8948 12.4C94.6348 12.2667 94.3448 12.2 94.0248 12.2C93.5648 12.2 93.1715 12.3467 92.8448 12.64C92.5248 12.9333 92.3415 13.34 92.2948 13.86H95.7548ZM99.836 17.09C99.416 17.09 99.0393 17.02 98.706 16.88C98.3726 16.7333 98.1093 16.5333 97.916 16.28C97.7226 16.02 97.616 15.7233 97.596 15.39H98.536C98.5626 15.6633 98.6893 15.8867 98.916 16.06C99.1493 16.2333 99.4526 16.32 99.826 16.32C100.173 16.32 100.446 16.2433 100.646 16.09C100.846 15.9367 100.946 15.7433 100.946 15.51C100.946 15.27 100.839 15.0933 100.626 14.98C100.413 14.86 100.083 14.7433 99.636 14.63C99.2293 14.5233 98.896 14.4167 98.636 14.31C98.3826 14.1967 98.1626 14.0333 97.976 13.82C97.796 13.6 97.706 13.3133 97.706 12.96C97.706 12.68 97.7893 12.4233 97.956 12.19C98.1226 11.9567 98.3593 11.7733 98.666 11.64C98.9726 11.5 99.3226 11.43 99.716 11.43C100.323 11.43 100.813 11.5833 101.186 11.89C101.559 12.1967 101.759 12.6167 101.786 13.15H100.876C100.856 12.8633 100.739 12.6333 100.526 12.46C100.319 12.2867 100.039 12.2 99.686 12.2C99.3593 12.2 99.0993 12.27 98.906 12.41C98.7126 12.55 98.616 12.7333 98.616 12.96C98.616 13.14 98.6726 13.29 98.786 13.41C98.906 13.5233 99.0526 13.6167 99.226 13.69C99.406 13.7567 99.6526 13.8333 99.966 13.92C100.359 14.0267 100.679 14.1333 100.926 14.24C101.173 14.34 101.383 14.4933 101.556 14.7C101.736 14.9067 101.829 15.1767 101.836 15.51C101.836 15.81 101.753 16.08 101.586 16.32C101.419 16.56 101.183 16.75 100.876 16.89C100.576 17.0233 100.229 17.09 99.836 17.09ZM108.121 14.05C108.121 14.2233 108.111 14.4067 108.091 14.6H103.711C103.744 15.14 103.927 15.5633 104.261 15.87C104.601 16.17 105.011 16.32 105.491 16.32C105.884 16.32 106.211 16.23 106.471 16.05C106.737 15.8633 106.924 15.6167 107.031 15.31H108.011C107.864 15.8367 107.571 16.2667 107.131 16.6C106.691 16.9267 106.144 17.09 105.491 17.09C104.971 17.09 104.504 16.9733 104.091 16.74C103.684 16.5067 103.364 16.1767 103.131 15.75C102.897 15.3167 102.781 14.8167 102.781 14.25C102.781 13.6833 102.894 13.1867 103.121 12.76C103.347 12.3333 103.664 12.0067 104.071 11.78C104.484 11.5467 104.957 11.43 105.491 11.43C106.011 11.43 106.471 11.5433 106.871 11.77C107.271 11.9967 107.577 12.31 107.791 12.71C108.011 13.1033 108.121 13.55 108.121 14.05ZM107.181 13.86C107.181 13.5133 107.104 13.2167 106.951 12.97C106.797 12.7167 106.587 12.5267 106.321 12.4C106.061 12.2667 105.771 12.2 105.451 12.2C104.991 12.2 104.597 12.3467 104.271 12.64C103.951 12.9333 103.767 13.34 103.721 13.86H107.181ZM24.6068 24.53C24.7868 24.2167 25.0534 23.9567 25.4068 23.75C25.7668 23.5367 26.1834 23.43 26.6568 23.43C27.1434 23.43 27.5834 23.5467 27.9768 23.78C28.3768 24.0133 28.6901 24.3433 28.9168 24.77C29.1434 25.19 29.2568 25.68 29.2568 26.24C29.2568 26.7933 29.1434 27.2867 28.9168 27.72C28.6901 28.1533 28.3768 28.49 27.9768 28.73C27.5834 28.97 27.1434 29.09 26.6568 29.09C26.1901 29.09 25.7768 28.9867 25.4168 28.78C25.0634 28.5667 24.7934 28.3033 24.6068 27.99V31.6H23.6968V23.52H24.6068V24.53ZM28.3268 26.24C28.3268 25.8267 28.2434 25.4667 28.0768 25.16C27.9101 24.8533 27.6834 24.62 27.3968 24.46C27.1168 24.3 26.8068 24.22 26.4668 24.22C26.1334 24.22 25.8234 24.3033 25.5368 24.47C25.2568 24.63 25.0301 24.8667 24.8568 25.18C24.6901 25.4867 24.6068 25.8433 24.6068 26.25C24.6068 26.6633 24.6901 27.0267 24.8568 27.34C25.0301 27.6467 25.2568 27.8833 25.5368 28.05C25.8234 28.21 26.1334 28.29 26.4668 28.29C26.8068 28.29 27.1168 28.21 27.3968 28.05C27.6834 27.8833 27.9101 27.6467 28.0768 27.34C28.2434 27.0267 28.3268 26.66 28.3268 26.24ZM35.3146 23.52V29H34.4046V28.19C34.2312 28.47 33.9879 28.69 33.6746 28.85C33.3679 29.0033 33.0279 29.08 32.6546 29.08C32.2279 29.08 31.8446 28.9933 31.5046 28.82C31.1646 28.64 30.8946 28.3733 30.6946 28.02C30.5012 27.6667 30.4046 27.2367 30.4046 26.73V23.52H31.3046V26.61C31.3046 27.15 31.4412 27.5667 31.7146 27.86C31.9879 28.1467 32.3612 28.29 32.8346 28.29C33.3212 28.29 33.7046 28.14 33.9846 27.84C34.2646 27.54 34.4046 27.1033 34.4046 26.53V23.52H35.3146ZM37.7611 24.41C37.9211 24.0967 38.1477 23.8533 38.4411 23.68C38.7411 23.5067 39.1044 23.42 39.5311 23.42V24.36H39.2911C38.2711 24.36 37.7611 24.9133 37.7611 26.02V29H36.8511V23.52H37.7611V24.41ZM41.4915 24.53C41.6715 24.2167 41.9382 23.9567 42.2915 23.75C42.6515 23.5367 43.0682 23.43 43.5415 23.43C44.0282 23.43 44.4682 23.5467 44.8615 23.78C45.2615 24.0133 45.5749 24.3433 45.8015 24.77C46.0282 25.19 46.1415 25.68 46.1415 26.24C46.1415 26.7933 46.0282 27.2867 45.8015 27.72C45.5749 28.1533 45.2615 28.49 44.8615 28.73C44.4682 28.97 44.0282 29.09 43.5415 29.09C43.0749 29.09 42.6615 28.9867 42.3015 28.78C41.9482 28.5667 41.6782 28.3033 41.4915 27.99V31.6H40.5815V23.52H41.4915V24.53ZM45.2115 26.24C45.2115 25.8267 45.1282 25.4667 44.9615 25.16C44.7949 24.8533 44.5682 24.62 44.2815 24.46C44.0015 24.3 43.6915 24.22 43.3515 24.22C43.0182 24.22 42.7082 24.3033 42.4215 24.47C42.1415 24.63 41.9149 24.8667 41.7415 25.18C41.5749 25.4867 41.4915 25.8433 41.4915 26.25C41.4915 26.6633 41.5749 27.0267 41.7415 27.34C41.9149 27.6467 42.1415 27.8833 42.4215 28.05C42.7082 28.21 43.0182 28.29 43.3515 28.29C43.6915 28.29 44.0015 28.21 44.2815 28.05C44.5682 27.8833 44.7949 27.6467 44.9615 27.34C45.1282 27.0267 45.2115 26.66 45.2115 26.24ZM49.7293 29.09C49.216 29.09 48.7493 28.9733 48.3293 28.74C47.916 28.5067 47.5893 28.1767 47.3493 27.75C47.116 27.3167 46.9993 26.8167 46.9993 26.25C46.9993 25.69 47.1193 25.1967 47.3593 24.77C47.606 24.3367 47.9393 24.0067 48.3593 23.78C48.7793 23.5467 49.2493 23.43 49.7693 23.43C50.2893 23.43 50.7593 23.5467 51.1793 23.78C51.5993 24.0067 51.9293 24.3333 52.1693 24.76C52.416 25.1867 52.5393 25.6833 52.5393 26.25C52.5393 26.8167 52.4127 27.3167 52.1593 27.75C51.9127 28.1767 51.576 28.5067 51.1493 28.74C50.7227 28.9733 50.2493 29.09 49.7293 29.09ZM49.7293 28.29C50.056 28.29 50.3627 28.2133 50.6493 28.06C50.936 27.9067 51.166 27.6767 51.3393 27.37C51.5193 27.0633 51.6093 26.69 51.6093 26.25C51.6093 25.81 51.5227 25.4367 51.3493 25.13C51.176 24.8233 50.9493 24.5967 50.6693 24.45C50.3893 24.2967 50.086 24.22 49.7593 24.22C49.426 24.22 49.1193 24.2967 48.8393 24.45C48.566 24.5967 48.346 24.8233 48.1793 25.13C48.0127 25.4367 47.9293 25.81 47.9293 26.25C47.9293 26.6967 48.0093 27.0733 48.1693 27.38C48.336 27.6867 48.556 27.9167 48.8293 28.07C49.1027 28.2167 49.4027 28.29 49.7293 28.29ZM55.6758 29.09C55.2558 29.09 54.8792 29.02 54.5458 28.88C54.2125 28.7333 53.9492 28.5333 53.7558 28.28C53.5625 28.02 53.4558 27.7233 53.4358 27.39H54.3758C54.4025 27.6633 54.5292 27.8867 54.7558 28.06C54.9892 28.2333 55.2925 28.32 55.6658 28.32C56.0125 28.32 56.2858 28.2433 56.4858 28.09C56.6858 27.9367 56.7858 27.7433 56.7858 27.51C56.7858 27.27 56.6792 27.0933 56.4658 26.98C56.2525 26.86 55.9225 26.7433 55.4758 26.63C55.0692 26.5233 54.7358 26.4167 54.4758 26.31C54.2225 26.1967 54.0025 26.0333 53.8158 25.82C53.6358 25.6 53.5458 25.3133 53.5458 24.96C53.5458 24.68 53.6292 24.4233 53.7958 24.19C53.9625 23.9567 54.1992 23.7733 54.5058 23.64C54.8125 23.5 55.1625 23.43 55.5558 23.43C56.1625 23.43 56.6525 23.5833 57.0258 23.89C57.3992 24.1967 57.5992 24.6167 57.6258 25.15H56.7158C56.6958 24.8633 56.5792 24.6333 56.3658 24.46C56.1592 24.2867 55.8792 24.2 55.5258 24.2C55.1992 24.2 54.9392 24.27 54.7458 24.41C54.5525 24.55 54.4558 24.7333 54.4558 24.96C54.4558 25.14 54.5125 25.29 54.6258 25.41C54.7458 25.5233 54.8925 25.6167 55.0658 25.69C55.2458 25.7567 55.4925 25.8333 55.8058 25.92C56.1992 26.0267 56.5192 26.1333 56.7658 26.24C57.0125 26.34 57.2225 26.4933 57.3958 26.7C57.5758 26.9067 57.6692 27.1767 57.6758 27.51C57.6758 27.81 57.5925 28.08 57.4258 28.32C57.2592 28.56 57.0225 28.75 56.7158 28.89C56.4158 29.0233 56.0692 29.09 55.6758 29.09ZM63.9604 26.05C63.9604 26.2233 63.9504 26.4067 63.9304 26.6H59.5504C59.5838 27.14 59.7671 27.5633 60.1004 27.87C60.4404 28.17 60.8504 28.32 61.3304 28.32C61.7238 28.32 62.0504 28.23 62.3104 28.05C62.5771 27.8633 62.7638 27.6167 62.8704 27.31H63.8504C63.7038 27.8367 63.4104 28.2667 62.9704 28.6C62.5304 28.9267 61.9838 29.09 61.3304 29.09C60.8104 29.09 60.3438 28.9733 59.9304 28.74C59.5238 28.5067 59.2038 28.1767 58.9704 27.75C58.7371 27.3167 58.6204 26.8167 58.6204 26.25C58.6204 25.6833 58.7338 25.1867 58.9604 24.76C59.1871 24.3333 59.5038 24.0067 59.9104 23.78C60.3238 23.5467 60.7971 23.43 61.3304 23.43C61.8504 23.43 62.3104 23.5433 62.7104 23.77C63.1104 23.9967 63.4171 24.31 63.6304 24.71C63.8504 25.1033 63.9604 25.55 63.9604 26.05ZM63.0204 25.86C63.0204 25.5133 62.9438 25.2167 62.7904 24.97C62.6371 24.7167 62.4271 24.5267 62.1604 24.4C61.9004 24.2667 61.6104 24.2 61.2904 24.2C60.8304 24.2 60.4371 24.3467 60.1104 24.64C59.7904 24.9333 59.6071 25.34 59.5604 25.86H63.0204ZM67.1016 29.09C66.6816 29.09 66.3049 29.02 65.9716 28.88C65.6383 28.7333 65.3749 28.5333 65.1816 28.28C64.9883 28.02 64.8816 27.7233 64.8616 27.39H65.8016C65.8283 27.6633 65.9549 27.8867 66.1816 28.06C66.4149 28.2333 66.7183 28.32 67.0916 28.32C67.4383 28.32 67.7116 28.2433 67.9116 28.09C68.1116 27.9367 68.2116 27.7433 68.2116 27.51C68.2116 27.27 68.1049 27.0933 67.8916 26.98C67.6783 26.86 67.3483 26.7433 66.9016 26.63C66.4949 26.5233 66.1616 26.4167 65.9016 26.31C65.6483 26.1967 65.4283 26.0333 65.2416 25.82C65.0616 25.6 64.9716 25.3133 64.9716 24.96C64.9716 24.68 65.0549 24.4233 65.2216 24.19C65.3883 23.9567 65.6249 23.7733 65.9316 23.64C66.2383 23.5 66.5883 23.43 66.9816 23.43C67.5883 23.43 68.0783 23.5833 68.4516 23.89C68.8249 24.1967 69.0249 24.6167 69.0516 25.15H68.1416C68.1216 24.8633 68.0049 24.6333 67.7916 24.46C67.5849 24.2867 67.3049 24.2 66.9516 24.2C66.6249 24.2 66.3649 24.27 66.1716 24.41C65.9783 24.55 65.8816 24.7333 65.8816 24.96C65.8816 25.14 65.9383 25.29 66.0516 25.41C66.1716 25.5233 66.3183 25.6167 66.4916 25.69C66.6716 25.7567 66.9183 25.8333 67.2316 25.92C67.6249 26.0267 67.9449 26.1333 68.1916 26.24C68.4383 26.34 68.6483 26.4933 68.8216 26.7C69.0016 26.9067 69.0949 27.1767 69.1016 27.51C69.1016 27.81 69.0183 28.08 68.8516 28.32C68.6849 28.56 68.4483 28.75 68.1416 28.89C67.8416 29.0233 67.4949 29.09 67.1016 29.09ZM72.7122 26.24C72.7122 25.68 72.8256 25.19 73.0522 24.77C73.2789 24.3433 73.5889 24.0133 73.9822 23.78C74.3822 23.5467 74.8256 23.43 75.3122 23.43C75.7922 23.43 76.2089 23.5333 76.5622 23.74C76.9156 23.9467 77.1789 24.2067 77.3522 24.52V23.52H78.2722V29H77.3522V27.98C77.1722 28.3 76.9022 28.5667 76.5422 28.78C76.1889 28.9867 75.7756 29.09 75.3022 29.09C74.8156 29.09 74.3756 28.97 73.9822 28.73C73.5889 28.49 73.2789 28.1533 73.0522 27.72C72.8256 27.2867 72.7122 26.7933 72.7122 26.24ZM77.3522 26.25C77.3522 25.8367 77.2689 25.4767 77.1022 25.17C76.9356 24.8633 76.7089 24.63 76.4222 24.47C76.1422 24.3033 75.8322 24.22 75.4922 24.22C75.1522 24.22 74.8422 24.3 74.5622 24.46C74.2822 24.62 74.0589 24.8533 73.8922 25.16C73.7256 25.4667 73.6422 25.8267 73.6422 26.24C73.6422 26.66 73.7256 27.0267 73.8922 27.34C74.0589 27.6467 74.2822 27.8833 74.5622 28.05C74.8422 28.21 75.1522 28.29 75.4922 28.29C75.8322 28.29 76.1422 28.21 76.4222 28.05C76.7089 27.8833 76.9356 27.6467 77.1022 27.34C77.2689 27.0267 77.3522 26.6633 77.3522 26.25ZM80.72 24.41C80.88 24.0967 81.1067 23.8533 81.4 23.68C81.7 23.5067 82.0634 23.42 82.49 23.42V24.36H82.25C81.23 24.36 80.72 24.9133 80.72 26.02V29H79.81V23.52H80.72V24.41ZM88.5405 26.05C88.5405 26.2233 88.5305 26.4067 88.5105 26.6H84.1305C84.1638 27.14 84.3472 27.5633 84.6805 27.87C85.0205 28.17 85.4305 28.32 85.9105 28.32C86.3038 28.32 86.6305 28.23 86.8905 28.05C87.1572 27.8633 87.3438 27.6167 87.4505 27.31H88.4305C88.2838 27.8367 87.9905 28.2667 87.5505 28.6C87.1105 28.9267 86.5638 29.09 85.9105 29.09C85.3905 29.09 84.9238 28.9733 84.5105 28.74C84.1038 28.5067 83.7838 28.1767 83.5505 27.75C83.3172 27.3167 83.2005 26.8167 83.2005 26.25C83.2005 25.6833 83.3138 25.1867 83.5405 24.76C83.7672 24.3333 84.0838 24.0067 84.4905 23.78C84.9038 23.5467 85.3772 23.43 85.9105 23.43C86.4305 23.43 86.8905 23.5433 87.2905 23.77C87.6905 23.9967 87.9972 24.31 88.2105 24.71C88.4305 25.1033 88.5405 25.55 88.5405 26.05ZM87.6005 25.86C87.6005 25.5133 87.5238 25.2167 87.3705 24.97C87.2172 24.7167 87.0072 24.5267 86.7405 24.4C86.4805 24.2667 86.1905 24.2 85.8705 24.2C85.4105 24.2 85.0172 24.3467 84.6905 24.64C84.3705 24.9333 84.1872 25.34 84.1405 25.86H87.6005ZM95.0777 23.42C95.7444 23.42 96.2844 23.6233 96.6977 24.03C97.111 24.43 97.3177 25.01 97.3177 25.77V29H96.4177V25.9C96.4177 25.3533 96.281 24.9367 96.0077 24.65C95.7344 24.3567 95.361 24.21 94.8877 24.21C94.4077 24.21 94.0244 24.36 93.7377 24.66C93.4577 24.96 93.3177 25.3967 93.3177 25.97V29H92.4077V23.52H93.3177V24.3C93.4977 24.02 93.741 23.8033 94.0477 23.65C94.361 23.4967 94.7044 23.42 95.0777 23.42ZM101.194 29.09C100.681 29.09 100.214 28.9733 99.7942 28.74C99.3808 28.5067 99.0542 28.1767 98.8142 27.75C98.5808 27.3167 98.4642 26.8167 98.4642 26.25C98.4642 25.69 98.5842 25.1967 98.8242 24.77C99.0708 24.3367 99.4042 24.0067 99.8242 23.78C100.244 23.5467 100.714 23.43 101.234 23.43C101.754 23.43 102.224 23.5467 102.644 23.78C103.064 24.0067 103.394 24.3333 103.634 24.76C103.881 25.1867 104.004 25.6833 104.004 26.25C104.004 26.8167 103.878 27.3167 103.624 27.75C103.378 28.1767 103.041 28.5067 102.614 28.74C102.188 28.9733 101.714 29.09 101.194 29.09ZM101.194 28.29C101.521 28.29 101.828 28.2133 102.114 28.06C102.401 27.9067 102.631 27.6767 102.804 27.37C102.984 27.0633 103.074 26.69 103.074 26.25C103.074 25.81 102.988 25.4367 102.814 25.13C102.641 24.8233 102.414 24.5967 102.134 24.45C101.854 24.2967 101.551 24.22 101.224 24.22C100.891 24.22 100.584 24.2967 100.304 24.45C100.031 24.5967 99.8108 24.8233 99.6442 25.13C99.4775 25.4367 99.3942 25.81 99.3942 26.25C99.3942 26.6967 99.4742 27.0733 99.6342 27.38C99.8008 27.6867 100.021 27.9167 100.294 28.07C100.568 28.2167 100.868 28.29 101.194 28.29ZM106.311 24.27V27.5C106.311 27.7667 106.367 27.9567 106.481 28.07C106.594 28.1767 106.791 28.23 107.071 28.23H107.741V29H106.921C106.414 29 106.034 28.8833 105.781 28.65C105.527 28.4167 105.401 28.0333 105.401 27.5V24.27H104.691V23.52H105.401V22.14H106.311V23.52H107.741V24.27H106.311ZM43.3323 38.24C43.3323 37.68 43.4457 37.19 43.6723 36.77C43.899 36.3433 44.209 36.0133 44.6023 35.78C45.0023 35.5467 45.4457 35.43 45.9323 35.43C46.4123 35.43 46.829 35.5333 47.1823 35.74C47.5357 35.9467 47.799 36.2067 47.9723 36.52V35.52H48.8923V41H47.9723V39.98C47.7923 40.3 47.5223 40.5667 47.1623 40.78C46.809 40.9867 46.3957 41.09 45.9223 41.09C45.4357 41.09 44.9957 40.97 44.6023 40.73C44.209 40.49 43.899 40.1533 43.6723 39.72C43.4457 39.2867 43.3323 38.7933 43.3323 38.24ZM47.9723 38.25C47.9723 37.8367 47.889 37.4767 47.7223 37.17C47.5557 36.8633 47.329 36.63 47.0423 36.47C46.7623 36.3033 46.4523 36.22 46.1123 36.22C45.7723 36.22 45.4623 36.3 45.1823 36.46C44.9023 36.62 44.679 36.8533 44.5123 37.16C44.3457 37.4667 44.2623 37.8267 44.2623 38.24C44.2623 38.66 44.3457 39.0267 44.5123 39.34C44.679 39.6467 44.9023 39.8833 45.1823 40.05C45.4623 40.21 45.7723 40.29 46.1123 40.29C46.4523 40.29 46.7623 40.21 47.0423 40.05C47.329 39.8833 47.5557 39.6467 47.7223 39.34C47.889 39.0267 47.9723 38.6633 47.9723 38.25ZM51.3402 33.6V41H50.4302V33.6H51.3402ZM53.8011 33.6V41H52.8911V33.6H53.8011ZM57.742 41.09C57.2287 41.09 56.762 40.9733 56.342 40.74C55.9287 40.5067 55.602 40.1767 55.362 39.75C55.1287 39.3167 55.012 38.8167 55.012 38.25C55.012 37.69 55.132 37.1967 55.372 36.77C55.6187 36.3367 55.952 36.0067 56.372 35.78C56.792 35.5467 57.262 35.43 57.782 35.43C58.302 35.43 58.772 35.5467 59.192 35.78C59.612 36.0067 59.942 36.3333 60.182 36.76C60.4287 37.1867 60.552 37.6833 60.552 38.25C60.552 38.8167 60.4254 39.3167 60.172 39.75C59.9254 40.1767 59.5887 40.5067 59.162 40.74C58.7354 40.9733 58.262 41.09 57.742 41.09ZM57.742 40.29C58.0687 40.29 58.3754 40.2133 58.662 40.06C58.9487 39.9067 59.1787 39.6767 59.352 39.37C59.532 39.0633 59.622 38.69 59.622 38.25C59.622 37.81 59.5354 37.4367 59.362 37.13C59.1887 36.8233 58.962 36.5967 58.682 36.45C58.402 36.2967 58.0987 36.22 57.772 36.22C57.4387 36.22 57.132 36.2967 56.852 36.45C56.5787 36.5967 56.3587 36.8233 56.192 37.13C56.0254 37.4367 55.942 37.81 55.942 38.25C55.942 38.6967 56.022 39.0733 56.182 39.38C56.3487 39.6867 56.5687 39.9167 56.842 40.07C57.1154 40.2167 57.4154 40.29 57.742 40.29ZM69.0485 35.52L67.3385 41H66.3985L65.0785 36.65L63.7585 41H62.8185L61.0985 35.52H62.0285L63.2885 40.12L64.6485 35.52H65.5785L66.9085 40.13L68.1485 35.52H69.0485ZM74.9516 38.05C74.9516 38.2233 74.9416 38.4067 74.9216 38.6H70.5416C70.575 39.14 70.7583 39.5633 71.0916 39.87C71.4316 40.17 71.8416 40.32 72.3216 40.32C72.715 40.32 73.0416 40.23 73.3016 40.05C73.5683 39.8633 73.755 39.6167 73.8616 39.31H74.8416C74.695 39.8367 74.4016 40.2667 73.9616 40.6C73.5216 40.9267 72.975 41.09 72.3216 41.09C71.8016 41.09 71.335 40.9733 70.9216 40.74C70.515 40.5067 70.195 40.1767 69.9616 39.75C69.7283 39.3167 69.6116 38.8167 69.6116 38.25C69.6116 37.6833 69.725 37.1867 69.9516 36.76C70.1783 36.3333 70.495 36.0067 70.9016 35.78C71.315 35.5467 71.7883 35.43 72.3216 35.43C72.8416 35.43 73.3016 35.5433 73.7016 35.77C74.1016 35.9967 74.4083 36.31 74.6216 36.71C74.8416 37.1033 74.9516 37.55 74.9516 38.05ZM74.0116 37.86C74.0116 37.5133 73.935 37.2167 73.7816 36.97C73.6283 36.7167 73.4183 36.5267 73.1516 36.4C72.8916 36.2667 72.6016 36.2 72.2816 36.2C71.8216 36.2 71.4283 36.3467 71.1016 36.64C70.7816 36.9333 70.5983 37.34 70.5516 37.86H74.0116ZM75.8128 38.24C75.8128 37.68 75.9261 37.19 76.1528 36.77C76.3795 36.3433 76.6895 36.0133 77.0828 35.78C77.4828 35.5467 77.9295 35.43 78.4228 35.43C78.8495 35.43 79.2461 35.53 79.6128 35.73C79.9795 35.9233 80.2595 36.18 80.4528 36.5V33.6H81.3728V41H80.4528V39.97C80.2728 40.2967 80.0061 40.5667 79.6528 40.78C79.2995 40.9867 78.8861 41.09 78.4128 41.09C77.9261 41.09 77.4828 40.97 77.0828 40.73C76.6895 40.49 76.3795 40.1533 76.1528 39.72C75.9261 39.2867 75.8128 38.7933 75.8128 38.24ZM80.4528 38.25C80.4528 37.8367 80.3695 37.4767 80.2028 37.17C80.0361 36.8633 79.8095 36.63 79.5228 36.47C79.2428 36.3033 78.9328 36.22 78.5928 36.22C78.2528 36.22 77.9428 36.3 77.6628 36.46C77.3828 36.62 77.1595 36.8533 76.9928 37.16C76.8261 37.4667 76.7428 37.8267 76.7428 38.24C76.7428 38.66 76.8261 39.0267 76.9928 39.34C77.1595 39.6467 77.3828 39.8833 77.6628 40.05C77.9428 40.21 78.2528 40.29 78.5928 40.29C78.9328 40.29 79.2428 40.21 79.5228 40.05C79.8095 39.8833 80.0361 39.6467 80.2028 39.34C80.3695 39.0267 80.4528 38.6633 80.4528 38.25ZM84.0906 34.03L83.9806 39.03H83.2206L83.1106 34.03H84.0906ZM83.6406 41.06C83.4673 41.06 83.3206 41 83.2006 40.88C83.0806 40.76 83.0206 40.6133 83.0206 40.44C83.0206 40.2667 83.0806 40.12 83.2006 40C83.3206 39.88 83.4673 39.82 83.6406 39.82C83.8073 39.82 83.9473 39.88 84.0606 40C84.1806 40.12 84.2406 40.2667 84.2406 40.44C84.2406 40.6133 84.1806 40.76 84.0606 40.88C83.9473 41 83.8073 41.06 83.6406 41.06ZM87.0691 34.03L86.9591 39.03H86.1991L86.0891 34.03H87.0691ZM86.6191 41.06C86.4458 41.06 86.2991 41 86.1791 40.88C86.0591 40.76 85.9991 40.6133 85.9991 40.44C85.9991 40.2667 86.0591 40.12 86.1791 40C86.2991 39.88 86.4458 39.82 86.6191 39.82C86.7858 39.82 86.9258 39.88 87.0391 40C87.1591 40.12 87.2191 40.2667 87.2191 40.44C87.2191 40.6133 87.1591 40.76 87.0391 40.88C86.9258 41 86.7858 41.06 86.6191 41.06Z" fill="white"/>
<path d="M0 25L11.25 17.2058L11.25 32.7942L0 25Z" fill="#8C2822"/>
</svg>
